<svg width="66" height="65" viewBox="0 0 66 65" fill="none" xmlns="http://www.w3.org/2000/svg">
  <!-- Background (Hall Building) -->
  <rect width="66" height="65" rx="10" fill="#F6F8FF"/>
  
  <!-- Main Hall Room -->
  <rect x="8" y="14" width="50" height="37" rx="5" fill="#B4C8FF"/>
  
  <!-- Seating Area -->
  <rect x="12" y="18" width="10" height="5" rx="2" fill="#FFFFFF"/>
  <rect x="12" y="25" width="10" height="5" rx="2" fill="#FFFFFF"/>
  <rect x="12" y="32" width="10" height="5" rx="2" fill="#FFFFFF"/>
  <rect x="12" y="39" width="10" height="5" rx="2" fill="#FFFFFF"/>
  
  <rect x="22" y="18" width="10" height="5" rx="2" fill="#FFFFFF"/>
  <rect x="22" y="25" width="10" height="5" rx="2" fill="#FFFFFF"/>
  <rect x="22" y="32" width="10" height="5" rx="2" fill="#FFFFFF"/>
  <rect x="22" y="39" width="10" height="5" rx="2" fill="#FFFFFF"/>
  
  <rect x="32" y="18" width="10" height="5" rx="2" fill="#FFFFFF"/>
  <rect x="32" y="25" width="10" height="5" rx="2" fill="#FFFFFF"/>
  <rect x="32" y="32" width="10" height="5" rx="2" fill="#FFFFFF"/>
  <rect x="32" y="39" width="10" height="5" rx="2" fill="#FFFFFF"/>
  
  <rect x="42" y="18" width="10" height="5" rx="2" fill="#FFFFFF"/>
  <rect x="42" y="25" width="10" height="5" rx="2" fill="#FFFFFF"/>
  <rect x="42" y="32" width="10" height="5" rx="2" fill="#FFFFFF"/>
  <rect x="42" y="39" width="10" height="5" rx="2" fill="#FFFFFF"/>
  
  <!-- Doors -->
  <rect x="8" y="26" width="3" height="13" rx="1" fill="#577CFF"/>
  <rect x="55" y="26" width="3" height="13" rx="1" fill="#577CFF"/>
  
  <!-- Stage -->
  <rect x="28" y="9" width="10" height="5" fill="#F7DECE"/>
  
  <!-- Stage Lights (Optional visual effect for seminar hall) -->
  <circle cx="33" cy="6" r="1.5" fill="#FFD700"/>
  <circle cx="33" cy="6" r="0.9" fill="#FFFF00"/>
</svg>
